<svg xmlns="http://www.w3.org/2000/svg" viewBox="0 0 100 100" width="100%" height="100%">
  <defs>
    <linearGradient id="greetGrad" x1="0%" y1="0%" x2="100%" y2="100%">
      <stop offset="0%" stop-color="#f472b6"/>
      <stop offset="100%" stop-color="#db2777"/>
    </linearGradient>
  </defs>
  <circle cx="50" cy="50" r="42" fill="url(#greetGrad)"/>
  <!-- Waving hand silhouette -->
  <path d="M 35 68 C 30 55 35 40 40 40 C 43 40 45 44 45 48 C 45 35 50 32 54 32 C 57 32 60 36 60 42 C 60 34 65 32 68 32 C 72 32 74 36 74 44 C 74 38 78 38 81 40 C 85 43 82 58 75 68 C 65 80 42 78 35 68 Z" fill="#ffffff"/>
</svg>
