<svg xmlns="http://www.w3.org/2000/svg" viewBox="0 0 260 260" width="260" height="260">
  <rect width="260" height="260" rx="24" fill="#eef7ff"/>

  <ellipse cx="130" cy="220" rx="82" ry="10" fill="#b9cee7" opacity="0.45"/>

  <!-- Feet -->
  <path d="M 88 210 Q 100 218 101 221 Q 93 222 88 218 Z" fill="#f4a524"/>
  <path d="M 172 210 Q 184 218 185 221 Q 177 222 172 218 Z" fill="#f4a524"/>

  <!-- Body -->
  <ellipse cx="130" cy="150" rx="72" ry="66" fill="#1f2937"/>

  <!-- Belly -->
  <ellipse cx="130" cy="154" rx="45" ry="48" fill="#fff"/>

  <!-- Head -->
  <circle cx="130" cy="80" r="54" fill="#1f2937"/>

  <!-- Face / face white patch -->
  <ellipse cx="130" cy="84" rx="36" ry="30" fill="#fff"/>

  <!-- Eyes -->
  <circle cx="114" cy="84" r="4" fill="#1f2937"/>
  <circle cx="146" cy="84" r="4" fill="#1f2937"/>

  <!-- Beak -->
  <path d="M 128 95 Q 130 101 135 96 L 126 107 Z" fill="#fbbf24"/>

  <!-- Cheeks / warmer cheeks -->
  <circle cx="104" cy="94" r="4" fill="#fca5a5" opacity="0.9"/>
  <circle cx="156" cy="94" r="4" fill="#fca5a5" opacity="0.9"/>

  <!-- Wings -->
  <path d="M 103 122 Q 86 134 90 154 Q 105 150 112 140 Z" fill="#111827"/>
  <path d="M 157 122 Q 174 134 170 154 Q 155 150 148 140 Z" fill="#111827"/>

  <!-- Bow tie / school badge -->
  <path d="M 127 149 L 130 168 L 118 160 L 120 175 L 130 172 L 144 176 L 140 160 L 132 166 Z" fill="#2563eb"/>

  <!-- Northwestern highlight / small star -->
  <path d="M 130 118 L 134 127 L 144 128 L 136 135 L 138 144 L 130 140 L 122 144 L 124 135 L 116 128 L 126 127 Z" fill="#67e8f9"/>
</svg>
